<?xml version="1.0" encoding="utf-8"?>
<!-- Generator: Adobe Illustrator 16.0.0, SVG Export Plug-In . SVG Version: 6.00 Build 0)  -->
<!DOCTYPE svg PUBLIC "-//W3C//DTD SVG 1.1//EN" "http://www.w3.org/Graphics/SVG/1.1/DTD/svg11.dtd">
<svg version="1.1" id="Layer_1" xmlns="http://www.w3.org/2000/svg" xmlns:xlink="http://www.w3.org/1999/xlink" x="0px" y="0px"
	 width="1024px" height="768px" viewBox="0 0 1024 768" style="enable-background:new 0 0 1024 768;" xml:space="preserve">
<style type="text/css">
<![CDATA[
	.st0{fill:none;stroke:#00FFFF;stroke-miterlimit:10;}
	.st1{font-family:'MyriadPro-Regular';}
	.st2{fill:none;stroke:#FF0000;stroke-miterlimit:10;}
	.st3{fill:none;stroke:#C1272D;stroke-miterlimit:10;}
	.st4{font-size:12;}
	.st5{fill:none;stroke:#39B54A;stroke-miterlimit:10;}
]]>
</style>
<g id="Boat">
	<g id="Hull">
		<path class="st5" d="M742.5,541c0,0-31.5,33.333-46.833,45.333C674.874,602.605,637.5,620,637.5,620
			c-62,19.75-117.75,19.125-171.125,4.562C413,609.999,362,581.5,309.5,545.5c-35.344-29.75-52.346-64.332-60.136-92.248
			c-7.79-27.916-6.368-49.166-4.864-52.252c7.5-5,54.365-10.516,113.792-8.729c59.427,1.786,131.416,10.877,189.164,35.09
			c57.747,24.213,106.509,52.623,140.833,74.979C722.613,524.697,742.5,541,742.5,541z"/>
		<path class="st5" d="M243.948,403.047C244.739,414.169,218.333,526.335,402.5,608c135.921,60.271,234.038,20.091,234.038,20.091
			S674,610,696,592.5c18.127-14.419,46.5-43,46.5-43"/>
		<line class="st5" x1="637.5" y1="620" x2="636.538" y2="628.091"/>
		<line class="st5" x1="742.5" y1="541" x2="742.5" y2="550"/>
		<path class="st5" d="M636.538,628.091c0,0,0.962,34.659,18.462,41.409c17.369,6.699,41-3.5,54.5-16c9.964-9.226,28.5-22,33-40.25
			c4.41-17.885,0-63.25,0-63.25"/>
		<path class="st5" d="M675.5,671.623c0,0-77.5,57.377-258.5,3.877c-129.551-38.293-168-211.796-168-211.796"/>
		<path class="st5" d="M622.5,601.5C605.666,605.999,512,599.999,426,567c-35.257-13.528-100.519-44.871-124.667-81
			c-11.715-17.527-10.247-65.5-7.546-68.5c6.74-7.486,194.713,2,261.213,34.017c40.351,19.428,152.5,73.816,152.5,93.983
			c0,3.166-29.093,23.619-39.5,30.5C657.123,583.191,635.098,598.133,622.5,601.5z"/>
		<path class="st5" d="M301.333,486c0,0,54.167-22.296,185.667,27.56c46.261,17.539,166.476,71.94,166.476,71.94"/>
	</g>
	<line id="Forestay" class="st2" x1="253.362" y1="401.404" x2="295.915" y2="14.17"/>
	<line id="Sidestay" class="st2" x1="274.639" y1="498.213" x2="312.936" y2="14.17"/>
	<polyline id="Mast" class="st2" points="306.553,14.17 307.617,493.957 325.702,498.213 324.638,14.17 	"/>
	<polyline id="Halyard" class="st2" points="314.5,16 314.5,324 319,334 319.5,26.17 	"/>
	<g id="Boom">
		<ellipse class="st2" cx="750.749" cy="459.259" rx="3.251" ry="7.741"/>
		<polygon class="st2" points="751.5,467 332.5,413 332.5,401 332.5,401.404 751.5,452 		"/>
	</g>
	<polyline id="Sail" class="st2" points="651,191.5 747.498,430 325.481,397.5 	"/>
	<polyline id="Batten" class="st2" points="675,250.5 557,250.5 557.5,250 557.5,234 668.131,233.84 	"/>
	<polyline id="Outhaul" class="st2" points="741.5,425 750.749,447 433,420.5 	"/>
	<g id="Centerboard_Trunk">
		<line class="st3" x1="379" y1="493" x2="533" y2="554.5"/>
		<line class="st3" x1="378.5" y1="493" x2="378.5" y2="486"/>
		<line class="st3" x1="378.5" y1="485" x2="397" y2="474"/>
		<line class="st3" x1="378.5" y1="485" x2="533" y2="547"/>
		<line class="st3" x1="392.5" y1="485" x2="531.5" y2="541"/>
		<line class="st3" x1="397.5" y1="481" x2="536.5" y2="537"/>
		<line class="st3" x1="396.5" y1="474" x2="550" y2="536"/>
		<line class="st3" x1="531.5" y1="547" x2="550" y2="536"/>
		<line class="st3" x1="392.5" y1="485" x2="397.5" y2="481"/>
		<line class="st3" x1="531.5" y1="541" x2="536.5" y2="537"/>
		<line class="st3" x1="532.5" y1="554" x2="551" y2="543"/>
		<line class="st3" x1="532.5" y1="554" x2="532.5" y2="547"/>
		<line class="st3" x1="551.5" y1="542" x2="551.5" y2="535"/>
		<line class="st3" x1="392.053" y1="498.213" x2="392.5" y2="520.5"/>
		<line class="st3" x1="392.5" y1="520.5" x2="549.5" y2="589"/>
		<line class="st3" x1="549.5" y1="589" x2="554.5" y2="585"/>
		<path class="st3" d="M549.5,588.5c1.891-4.782-3.801-14.886-6.125-19.376c-3.278-6.333-11.968-9.753-13.875-16.124"/>
		<path class="st3" d="M554.5,586.5c1.891-4.782-3.801-14.886-6.125-19.376c-3.278-6.333-11.968-9.753-13.875-16.124"/>
	</g>
	<g id="Centerboard">
		<path class="st3" d="M397,485.5c0.149-5.809,3.696-21.209,13.025-14.512c5.558,3.989,1.676,16.653,3.975,22.012"/>
		<path class="st3" d="M401,483.5c0.149-5.809,3.696-21.209,13.025-14.512c5.558,3.989,1.676,16.653,3.975,22.012"/>
	</g>
	<g id="Thwart">
		<line class="st3" x1="402.177" y1="557.013" x2="536.5" y2="491"/>
		<line class="st3" x1="445.551" y1="574.011" x2="569.667" y2="503"/>
		<line class="st3" x1="451.565" y1="575.982" x2="569.667" y2="509.356"/>
		<line class="st3" x1="569.5" y1="509" x2="569.5" y2="503"/>
		<line class="st3" x1="569.5" y1="503" x2="536.5" y2="491"/>
	</g>
	<g id="Hiking_Strap">
		<path class="st3" d="M398,554.333c4.142-2.561,12.326-2.637,17.458-2.008c7.448,0.914,13.764,3.476,20.54,6.749
			c11.264,5.44,21.01,12.619,30.002,20.926"/>
		<path class="st3" d="M391.333,551c5.167-0.127,9.373-4.358,14.042-5.86c4.403-1.415,9.788-1.546,14.359-1.813
			c11.004-0.646,22.532,5.83,31.481,11.676c3.543,2.314,5.583,4.834,8.618,7.909c3.972,4.022,8.686,7.284,12.846,11.188
			c2.991,2.808,4.698,7.524,7.319,9.902"/>
		<path class="st3" d="M564.333,550.667c-2.853,0.454-11.057-19.83-13.057-22.983c-2.236-3.523-4.627-7.227-7.185-10.516
			c-2.577-3.314-6.436-5.311-9.752-7.827c-6.3-4.78-12.423-10.693-21.022-9.682c-5.734,0.675-11.327,3.396-13.651,8.674"/>
		<path class="st3" d="M569.667,549c-0.513-3.809-3.562-8.682-5.066-12.651c-1.855-4.896-4.858-8.533-7.867-12.581
			c-2.198-2.957-3.052-6.189-5.645-8.761c-2.285-2.266-4.854-4.36-6.838-6.722c-3.991-4.751-8.715-9.387-14.974-11.618
			c-2.708-0.965-5.541-1.587-8.354-2.253c-3.945-0.935-7.55-0.018-11.521-0.356c-2.558,3.241-7.937,4.636-10.347,8.593
			c-1.059,1.737-4.446,7.572-3.132,8.999c0.863,0.085,0.085-0.339,0.408-0.648"/>
	</g>
	<g id="Rudder">
		<path class="st3" d="M714.5,566c0,10.975-0.308,94.876,0.25,97.25c2.875,12.25,26.265,45.61,32.75,47.553
			c13.625,4.081,15.861-19.305,16.875-27.928c0.531-4.517,0.396-20.304,0.124-21.673c-0.5-2.5-18.543-24.051-21.999-29.202
			c-4.887-7.284-3.435-50.991-3.562-56.018C729.9,572.534,714.5,566,714.5,566z"/>
		<path class="st3" d="M717.5,564c0,10.975-0.308,94.876,0.25,97.25c2.875,12.25,26.265,45.61,32.75,47.553
			c13.625,4.081,15.861-19.305,16.875-27.928c0.531-4.517,0.396-20.304,0.124-21.673c-0.5-2.5-18.543-24.051-21.999-29.202
			c-4.887-7.284-3.435-50.991-3.562-56.018C732.9,570.534,717.5,564,717.5,564z"/>
	</g>
	<g id="Tiller">
		<line class="st3" x1="738.938" y1="575.982" x2="621.667" y2="529.665"/>
		<line class="st3" x1="739.938" y1="569.982" x2="622.667" y2="523.665"/>
		<line class="st3" x1="744.938" y1="565.982" x2="627.667" y2="519.665"/>
		<line class="st3" x1="739.938" y1="569.982" x2="738.938" y2="575.982"/>
		<line class="st3" x1="739.938" y1="569.982" x2="744.938" y2="565.982"/>
		<line class="st3" x1="738.938" y1="575.982" x2="744.07" y2="572.982"/>
		<line class="st3" x1="744.938" y1="565.982" x2="744.07" y2="572.982"/>
		<line class="st3" x1="627.667" y1="519.665" x2="622.667" y2="523.665"/>
		<line class="st3" x1="622.667" y1="523.665" x2="621.667" y2="529.665"/>
	</g>
	<g id="Hiking_Stick">
		<line class="st3" x1="627.667" y1="516" x2="553" y2="557.013"/>
		<line class="st3" x1="558" y1="559.999" x2="634.667" y2="517.332"/>
		<line class="st3" x1="558" y1="565.982" x2="634.667" y2="523.665"/>
		<line class="st3" x1="627.667" y1="516" x2="634.667" y2="517.332"/>
		<line class="st3" x1="634.5" y1="517" x2="634.5" y2="524"/>
		<line class="st3" x1="557.5" y1="566" x2="557.5" y2="560"/>
		<line class="st3" x1="557.5" y1="566" x2="552" y2="563"/>
		<line class="st3" x1="552" y1="563" x2="553" y2="557.013"/>
		<line class="st3" x1="553" y1="557.013" x2="557.5" y2="560"/>
	</g>
	<g id="Pintels">
		<g>
			<line class="st3" x1="701" y1="596.665" x2="701.334" y2="616.332"/>
			<line class="st3" x1="701" y1="616.5" x2="704" y2="616.5"/>
			<line class="st3" x1="703.5" y1="617" x2="703.5" y2="597"/>
			<line class="st3" x1="701" y1="596.665" x2="703.5" y2="597"/>
			<path class="st3" d="M702.334,609.665c2.387,0.017,4.167,0.322,6.275,0.957c0.195-3.227,0.749-7.854-0.334-10.906
				c-0.618-0.182-1.938-0.197-2.558-0.009c0.246,1.607,0.502,3.375-0.052,4.958"/>
		</g>
		<g>
			<line class="st3" x1="701" y1="624.665" x2="701.334" y2="644.332"/>
			<line class="st3" x1="701" y1="644.5" x2="704" y2="644.5"/>
			<line class="st3" x1="703.5" y1="645" x2="703.5" y2="625"/>
			<line class="st3" x1="701" y1="624.665" x2="703.5" y2="625"/>
			<path class="st3" d="M702.334,637.665c2.387,0.017,4.167,0.322,6.275,0.957c0.195-3.227,0.749-7.854-0.334-10.906
				c-0.618-0.182-1.938-0.197-2.558-0.009c0.246,1.607,0.502,3.375-0.052,4.958"/>
		</g>
	</g>
	<g id="Gudgeons">
		<path class="st3" d="M718.333,602.001c-2.181-0.854-5.195-1.507-7.646-1.358c1.071-1.534,0.15-4.198,0.312-6.129
			c0.323-3.863,1.759-1.127,1.833,1.157c0.116,3.598,2.673,0.953,4.972,1.869c1.635,0.65,1.402,4.777,0.362,4.794"/>
		<path class="st3" d="M718.333,629.001c-2.181-0.854-5.195-1.507-7.646-1.358c1.071-1.534,0.15-4.198,0.312-6.129
			c0.323-3.863,1.759-1.127,1.833,1.157c0.116,3.598,2.673,0.953,4.972,1.869c1.635,0.65,1.402,4.777,0.362,4.794"/>
	</g>
	<polyline id="Traveler" class="st3" points="729.5,544.824 705.63,526.665 644,607 	"/>
	<polyline id="Mainsheet" class="st3" points="554.5,550 531.5,517 490.5,519.665 499.699,441 675.5,463.704 705.63,526.665 
		742.438,465.832 	"/>
	<line id="Boomvang" class="st3" x1="325.702" y1="489.5" x2="405.5" y2="422.408"/>
	<g id="Gooseneck">
		<line class="st3" x1="325.481" y1="403.047" x2="332.5" y2="401.404"/>
		<line class="st3" x1="325.506" y1="409" x2="332.5" y2="410"/>
	</g>
	<polyline id="Downhaul" class="st3" points="328.99,467 332.5,391.928 316.128,441 	"/>
	<path id="Telltale" class="st3" d="M290.5,299.25c0.221-1.525,3.692-4.061,6.054-3.218c3.596,1.283,0.95,7.048,3.853,8.355
		c1.453-2.733,3.076-8.577,6.631-3.892c1.004,1.323,0.599,3.527,2.915,3.502c1.618-0.018,4.184-2.752,5.647-3.496
		c1.408,1.518,1.65,3.281,2.471,4.99c2.174,0.304,2.442-1.358,3.77-2.259c1.712,0.664,1.756,2.175,3.013,3.145
		c3.059,2.359,1.328,0.022,4.844-0.407c2.236-0.273,3.09,1.592,5.17,2.052c1.07,0.235,2.729-0.025,3.883-0.023"/>
	<path id="Painter" class="st3" d="M253,408c2.759,6.464-0.375,15.641,0,23c0.837,16.445-1.063,32.73-1,49.255
		c0.126,33.208,6.113,63.728,12,96.323c3.195,17.689,8.055,34.295,8,52.593c-0.046,15.405-1.62,32.688,1.952,47.649
		c3.379,14.158,14.283,23.162,27.877,27.687c16.759,5.577,34.953,14.963,52.029,18.667c2.885,6.495,12.485,13.285,18.142,17.826"/>
</g>
<g id="Labels">
	<g id="Batten_1_">
		<line class="st0" x1="665" y1="242.5" x2="704" y2="242.5"/>
		<text transform="matrix(1 0 0 1 710.6885 247.5)" class="st1 st4">Batten</text>
	</g>
	<g id="Outhaul_1_">
		<line class="st0" x1="522" y1="384" x2="507.609" y2="426.723"/>
		<text transform="matrix(1 0 0 1 522 378.5)" class="st1 st4">Outhaul</text>
	</g>
	<g id="Boom_1_">
		<line class="st0" x1="414" y1="384" x2="395" y2="415.08"/>
		<text transform="matrix(1 0 0 1 414 382)" class="st1 st4">Boom</text>
	</g>
	<g id="Downhaul_1_">
		<line class="st0" x1="372" y1="361" x2="332.5" y2="429.464"/>
		<text transform="matrix(1 0 0 1 372 357)" class="st1 st4">Downhaul</text>
	</g>
	<g id="Gooseneck_1_">
		<line class="st0" x1="338.75" y1="347" x2="332.5" y2="391.928"/>
		<text transform="matrix(1 0 0 1 338.75 338)" class="st1 st4">Gooseneck</text>
	</g>
	<g id="Telltale_1_">
		<line class="st0" x1="338.75" y1="308" x2="379" y2="301.993"/>
		<text transform="matrix(1 0 0 1 383 304.9971)" class="st1 st4">Telltale</text>
	</g>
	<g id="Sidestay_1_">
		<line class="st0" x1="298" y1="207.5" x2="213" y2="207.5"/>
		<text transform="matrix(1 0 0 1 124.7529 210)" class="st1 st4">Shroud/Sidestay</text>
	</g>
	<g id="Forestay_1_">
		<line class="st0" x1="282.533" y1="135.949" x2="236" y2="138"/>
		<text transform="matrix(1 0 0 1 183.4727 140)" class="st1 st4">Forestay</text>
	</g>
	<g id="Halyard_1_">
		<line class="st0" x1="316.128" y1="80" x2="349" y2="81"/>
		<text transform="matrix(1 0 0 1 358.5 85)" class="st1 st4">Halyard</text>
	</g>
	<g id="Mast_1_">
		<line class="st0" x1="324.66" y1="24.001" x2="349" y2="25"/>
		<text transform="matrix(1 0 0 1 358.875 31)" class="st1 st4">Mast</text>
	</g>
	<g id="Boomvang_1_">
		<line class="st0" x1="404.5" y1="434" x2="391.333" y2="434.319"/>
		<text transform="matrix(1 0 0 1 409 442)" class="st1 st4">Boomvang</text>
	</g>
	<g id="Mainsheet_1_">
		<line class="st0" x1="759" y1="485" x2="737.496" y2="474"/>
		<text transform="matrix(1 0 0 1 768 489)" class="st1 st4">Mainsheet</text>
	</g>
	<g id="Traveler_1_">
		<line class="st0" x1="759" y1="513" x2="718.989" y2="536"/>
		<text transform="matrix(1 0 0 1 766 517)" class="st1 st4">Traveler</text>
	</g>
	<g id="Rudder_1_">
		<line class="st0" x1="767.738" y1="617" x2="741.504" y2="653"/>
		<text transform="matrix(1 0 0 1 771 609)" class="st1 st4">Rudder</text>
	</g>
	<g id="Gudgeon">
		<line class="st0" x1="725" y1="711.276" x2="714.839" y2="634.498"/>
		<text transform="matrix(1 0 0 1 720 733)" class="st1 st4">Gudgeon</text>
	</g>
	<g id="Pintel">
		<line class="st0" x1="690.499" y1="692" x2="702.334" y2="637.665"/>
		<text transform="matrix(1 0 0 1 680.3027 706)" class="st1 st4">Pintel</text>
	</g>
	<g id="Transom">
		<line class="st0" x1="644" y1="692" x2="665" y2="653"/>
		<text transform="matrix(1 0 0 1 627.667 706)" class="st1 st4">Transom</text>
	</g>
	<g id="Gunwale">
		<line class="st0" x1="358.5" y1="565" x2="358.5" y2="611"/>
		<text transform="matrix(1 0 0 1 352.25 625)" class="st1 st4">Gunwale</text>
	</g>
	<text transform="matrix(1 0 0 1 387.75 757)" class="st1 st4">Painter</text>
	<g id="Hiking_Strap_1_">
		<line class="st0" x1="451.565" y1="592.578" x2="445.551" y2="560"/>
		<text transform="matrix(1 0 0 1 448.5586 607)" class="st1 st4">Hiking Strap</text>
	</g>
	<g id="Hiking_Stick_1_">
		<line class="st0" x1="564.333" y1="610.622" x2="567.432" y2="554.75"/>
		<text transform="matrix(1 0 0 1 536.5 624.0449)" class="st1 st4">Hiking Stick</text>
	</g>
	<g id="Tiller_1_">
		<line class="st0" x1="637.5" y1="548.5" x2="645.303" y2="539"/>
		<text transform="matrix(1 0 0 1 616 558.5059)" class="st1 st4">Tiller</text>
	</g>
	<g id="Centerboard_1_">
		<line class="st0" x1="414" y1="459.258" x2="410.025" y2="470.988"/>
		<text transform="matrix(1 0 0 1 418 459.2578)" class="st1 st4">Centerboard</text>
	</g>
	<text transform="matrix(1 0 0 1 372.2358 519.665)" class="st1 st4">Centerboard</text>
	<text transform="matrix(1 0 0 1 406.8799 534.0654)" class="st1 st4">Trunk</text>
	<text transform="matrix(1 0 0 1 444.8643 549)" class="st1 st4">Thwart</text>
</g>
</svg>
